# xmcd
#
# Track frame offsets: 
#        150
#        18381
#        38234
#        52264
#        72272
#        87944
#        106678
#        123551
#        142371
#        156885
#        173482
#
# Disc length: 2504 seconds
#
# Revision: 3
# Processed by: cddbd v1.5.2PL0 Copyright (c) Steve Scherf et al.
# Submitted via: ExactAudioCopy v0.99pb5
#
DISCID=9709c60b
DTITLE=Omar And The Howlers - Muddy Springs Road
DYEAR=1995
DGENRE=Blues
TTITLE0=Muddy Springs Road
TTITLE1=Black Bottom
TTITLE2=Midnight Ramblin' Man
TTITLE3=Hoo Doo Ball
TTITLE4=Life Is Just A Circle
TTITLE5=Life Without You
TTITLE6=Exactly What I Thought She'd Do
TTITLE7=Everywhere I Go
TTITLE8=Get Hip
TTITLE9=Hurry, Hurry
TTITLE10=Dangerous Man
EXTD=Omar Dykes - vocals, guitars\nGary Primich - harmonica\nNick Conn
EXTD=olly - piano, organ\nGerry "Phareaux" Felton - bass guitar\nGeorg
EXTD=e Rains - drums\nBradley Kopp - acoustic guitar\nMark Hallman - p
EXTD=ercussion
EXTT0=
EXTT1=
EXTT2=
EXTT3=
EXTT4=
EXTT5=
EXTT6=
EXTT7=
EXTT8=
EXTT9=
EXTT10=
PLAYORDER=
